<svg width="42" height="42" viewBox="0 0 42 42" fill="none" xmlns="http://www.w3.org/2000/svg">
<path fill-rule="evenodd" clip-rule="evenodd" d="M0.781717 26.6511C1.19662 28.1298 1.7703 29.5592 2.49272 30.9144C2.94208 31.7467 3.44343 32.55 3.99379 33.3191C5.29541 29.3288 9.98755 25.8005 17.115 23.6059C21.1563 22.3563 21.0093 20.3191 20.2641 15.7722C19.8851 13.8009 19.7302 11.793 19.8022 9.78677C20.0216 7.60327 20.9255 5.54506 22.3844 3.90631C23.6149 2.55986 25.1275 1.50206 26.8142 0.808564C25.1511 0.324418 23.4334 0.0527384 21.7021 0C18.5531 6.21649 16.3487 7.40309 14.7217 8.26415C13.3151 9.00971 12.3913 9.50325 11.0057 15.5097C10.4846 18.1253 9.25556 20.5474 7.45266 22.512C5.64977 24.4767 3.34224 25.9084 0.781717 26.6511ZM18.4796 0.136511C15.7081 0.470968 13.0311 1.35501 10.6053 2.73691C8.17943 4.1188 6.05345 5.97081 4.35172 8.18456C2.65 10.3983 1.4067 12.9294 0.694572 15.6295C-0.0175514 18.3298 -0.184197 21.145 0.204384 23.9104C4.2877 22.7238 7.18486 19.4895 8.25555 14.8902C9.84059 8.00163 11.2262 6.95155 13.3676 5.82796C14.7007 5.15591 16.1702 4.34734 18.4796 0.136511ZM30.4461 2.21568H30.2643C27.2937 2.64621 22.9933 5.43943 22.6679 9.98629C22.5903 11.7831 22.7135 13.5828 23.0353 15.3522C23.6966 19.5525 24.4419 24.2779 17.9232 26.2941C12.3913 27.9742 5.91473 31.324 5.91473 35.5768C6.96567 36.672 8.13443 37.6475 9.39972 38.4855C10.3864 36.1754 12.6433 31.87 16.2017 30.2844C17.1545 29.8553 18.1907 29.6437 19.2354 29.6648C20.2823 29.6758 21.3143 29.9158 22.2585 30.3684C22.9684 30.613 23.5968 31.0491 24.0745 31.6285C24.5551 32.2075 24.8641 32.9095 24.9667 33.6552C25.2816 36.5849 22.0905 39.9557 19.7182 41.9613C20.9152 42.033 22.1159 42.005 23.3082 41.8773C25.4924 40.5225 26.9414 38.1156 28.1158 35.8288C31.5063 29.6333 30.1102 25.475 28.7666 21.4637C28.0646 19.7156 27.6327 17.8708 27.486 15.9928C27.297 8.9047 31.0864 5.33442 33.2068 3.89581C32.3315 3.26512 31.4085 2.70339 30.4461 2.21568ZM35.4847 5.76496C34.435 6.332 30.1207 9.04122 30.2362 15.9193C30.3823 17.5311 30.7533 19.1147 31.3384 20.6236C32.724 24.7715 34.4874 29.9274 30.4776 37.1834C29.7988 38.4832 28.9556 39.6902 27.9688 40.7747C32.1792 39.294 35.8083 36.5096 38.3293 32.8256C38.7807 29.6754 37.6365 27.1867 36.3979 24.5509C35.2196 22.452 34.5239 20.1167 34.3615 17.7149C34.3908 16.1768 34.871 14.6812 35.7425 13.4137C36.6139 12.1461 37.8383 11.1625 39.2636 10.5848C38.3329 8.94371 37.1854 7.43551 35.852 6.10098L35.4847 5.76496ZM40.2713 12.601C39.2389 12.9938 38.3465 13.6848 37.7074 14.5859C37.0682 15.487 36.711 16.5578 36.6813 17.6624C36.8508 19.7269 37.4669 21.7297 38.4868 23.5324C39.3531 25.2003 40.0257 26.9619 40.4917 28.7828C41.7476 25.65 42.23 22.2605 41.8983 18.9015C41.6895 16.729 41.1405 14.6029 40.2713 12.601ZM16.0128 41.4048C18.637 39.4936 22.3949 35.8078 22.206 33.9597C22.206 33.7812 22.1325 33.3296 21.1563 32.9096C20.5666 32.6331 19.9233 32.4899 19.2721 32.4899C18.6209 32.4899 17.9776 32.6331 17.3879 32.9096C14.7007 34.0122 12.7482 37.719 11.8245 39.9032C12.2024 40.0817 12.5908 40.2602 12.9792 40.4177C13.9638 40.8235 14.978 41.1535 16.0128 41.4048Z" fill="url(#paint0_linear)"/>
<defs>
<linearGradient id="paint0_linear" x1="7.65723" y1="36.9104" x2="34.5516" y2="4.87166" gradientUnits="userSpaceOnUse">
<stop stop-color="#FFE03D"/>
<stop offset="0.11" stop-color="#FFCB05"/>
<stop offset="0.55" stop-color="#A6CE39"/>
<stop offset="0.85" stop-color="#6AA744"/>
<stop offset="1" stop-color="#248341"/>
</linearGradient>
</defs>
</svg>
