<svg width="42" height="43" viewBox="0 0 42 43" fill="none" xmlns="http://www.w3.org/2000/svg">
<path fill-rule="evenodd" clip-rule="evenodd" d="M0 42.2717H42V0H0V42.2717Z" fill="#CC003D"/>
<path fill-rule="evenodd" clip-rule="evenodd" d="M33.8331 13.4087C33.8368 13.2215 33.8714 11.9092 33.8743 11.732H34.1917C35.4187 11.732 35.6247 11.9502 35.7388 13.4087H33.8331ZM37.3244 12.6802C37.1318 11.0482 36.3704 10.199 34.5722 10.199H32.2855L31.9746 19.4179H33.641C33.641 19.4179 33.7948 15.1422 33.8037 14.9397C33.9862 14.9397 35.736 14.9417 35.9091 14.9417C35.9284 15.1281 36.2435 19.4179 36.2435 19.4179H37.964C37.964 19.4179 37.3718 13.0848 37.3244 12.6802Z" fill="white"/>
<path fill-rule="evenodd" clip-rule="evenodd" d="M13.6131 26.0698C13.6168 25.8826 13.6514 24.5706 13.6544 24.3934L13.9529 24.3745C15.18 24.3745 15.4045 24.6116 15.5188 26.0698H13.6131ZM17.1042 25.3413C16.912 23.7096 16.1502 22.8601 14.3522 22.8601H12.0653L11.7544 32.0791H13.4208C13.4208 32.0791 13.5746 27.8034 13.5837 27.6008C13.7665 27.6008 15.5161 27.6028 15.6892 27.6028C15.7084 27.7892 16.0233 32.0791 16.0233 32.0791H17.7437C17.7437 32.0791 17.1518 25.7462 17.1042 25.3413Z" fill="white"/>
<path fill-rule="evenodd" clip-rule="evenodd" d="M4.6001 10.199V19.4157H6.28425V11.7317H8.37141V19.4157H10.0583V10.199H4.6001Z" fill="white"/>
<path fill-rule="evenodd" clip-rule="evenodd" d="M22.4167 13.4087H21.4998C21.1208 13.4087 20.8395 13.3234 20.6602 13.1512C20.5338 13.0316 20.4718 12.8696 20.4718 12.6583V10.1987H18.7837V12.8303C18.7837 13.437 19.0222 13.95 19.4929 14.3576C19.9569 14.7612 20.5251 14.9645 21.1845 14.9645H22.4167V19.4157H24.1023V10.1987H22.4167V13.4087Z" fill="white"/>
<path fill-rule="evenodd" clip-rule="evenodd" d="M25.9688 10.199V11.7317H27.3684V19.4157H27.3892H29.0526H29.0733V11.7317H30.473V10.199H25.9688Z" fill="white"/>
<path fill-rule="evenodd" clip-rule="evenodd" d="M23.4955 22.8599V25.8061H21.1834V22.8599H19.502V32.0806H21.1834V27.3389H23.4955V32.0806H25.1769V22.8599H23.4955Z" fill="white"/>
<path fill-rule="evenodd" clip-rule="evenodd" d="M6.85962 30.6537C6.6959 30.6537 6.28424 30.6156 6.28424 30.6156V28.8162V28.6275V27.3707C6.28424 27.3707 6.41661 27.3393 6.56132 27.3393C7.41574 27.3393 8.42548 27.2891 8.42548 28.9949C8.42548 30.5587 7.31597 30.6537 6.85962 30.6537ZM7.0636 25.8769C6.77344 25.8769 6.51563 25.8839 6.28424 25.8946V24.3931H9.30682V22.8604H4.6001V24.3931V32.0773H4.71419H7.15645C9.70514 32.0773 10.1 29.7972 10.1 28.9531C10.1 27.9542 9.70736 25.8769 7.0636 25.8769Z" fill="white"/>
<path fill-rule="evenodd" clip-rule="evenodd" d="M13.3223 14.8239V14.8232C13.3364 12.3283 13.949 11.5074 14.595 11.4952C15.241 11.5074 15.8537 12.3283 15.8678 14.8232V14.8239C15.8537 17.2606 15.241 18.0928 14.595 18.1054C13.949 18.0928 13.3366 17.2606 13.3223 14.8239ZM17.5455 14.4822C17.5164 13.1637 17.2914 12.219 16.943 11.5479C16.3938 10.4009 15.5189 9.97262 14.6155 9.96168C14.6136 9.96168 14.6118 9.96094 14.6099 9.96094C14.6049 9.96094 14.6 9.96119 14.595 9.96119C14.5901 9.96119 14.5852 9.96094 14.5802 9.96094C14.5783 9.96094 14.5765 9.96168 14.5745 9.96168C13.6712 9.97262 12.7966 10.4009 12.2471 11.5479C11.8984 12.219 11.6737 13.1637 11.6446 14.4822C11.6443 14.4842 11.6406 14.7782 11.6406 14.7804L11.6409 14.7802C11.6419 15.6016 11.7327 16.3982 11.9103 17.0397C12.3728 18.9284 13.4416 19.5965 14.5573 19.6166C14.5649 19.6168 14.5731 19.6176 14.5802 19.6176C14.5852 19.6176 14.5901 19.6173 14.595 19.6173C14.6 19.6173 14.6049 19.6176 14.6099 19.6176C14.6173 19.6176 14.6254 19.6168 14.6328 19.6166C15.7485 19.5965 16.8173 18.9284 17.2798 17.0397C17.4576 16.3982 17.5485 15.6016 17.5492 14.7802L17.5495 14.7804C17.5495 14.7782 17.5455 14.4842 17.5455 14.4822Z" fill="white"/>
<path fill-rule="evenodd" clip-rule="evenodd" d="M33.568 32.0778L31.5409 26.675C31.9617 26.3596 32.2894 25.7554 32.4351 25.1537C32.5763 24.5688 32.7623 22.8599 32.7623 22.8599H31.1043C31.0942 23.0338 31.0584 23.6187 31.0065 24.2132C30.9297 25.0945 30.6719 25.9075 29.7762 25.9075H29.085C29.0838 25.8337 29.085 22.8599 29.085 22.8599H27.3994V32.0806H29.085V27.399C29.085 27.399 29.9768 27.4002 30.1027 27.3993L31.7584 32.0778H33.568Z" fill="white"/>
</svg>
