<svg width="42" height="42" viewBox="0 0 42 42" fill="none" xmlns="http://www.w3.org/2000/svg">
<path fill-rule="evenodd" clip-rule="evenodd" d="M24.334 22.731L22.7349 24.3301L23.7988 26.8992L26.903 23.7949L24.334 22.731ZM22.1423 24.5755H19.876L18.8135 27.1432H23.197L22.1423 24.5755ZM24.5886 19.8709V22.1292L27.1472 23.1919V18.8083L24.5886 19.8709ZM19.2742 24.3301L17.6752 22.731L15.1166 23.7949L18.2209 26.8992L19.2742 24.3301ZM23.7988 15.1009L22.7349 17.67L24.334 19.269L26.903 18.2052L23.7988 15.1009ZM19.876 17.4153H22.1423L23.197 14.8568H18.8135L19.876 17.4153ZM17.4297 22.1279V19.8709L14.8712 18.8083V23.1919L17.4297 22.1279ZM17.6752 19.269L19.2742 17.67L18.2209 15.1009L15.1166 18.2052L17.6752 19.269ZM19.3682 13.1728H34.8699C35.4051 13.1728 35.9416 13.3791 36.3555 13.7928C36.5529 13.9879 36.7095 14.2201 36.8165 14.4762C36.9235 14.7321 36.9785 15.0069 36.9785 15.2843C36.9785 15.5618 36.9235 15.8364 36.8165 16.0925C36.7095 16.3485 36.5529 16.5807 36.3555 16.7757L39.9113 20.3316C40.5746 19.6683 41.1005 18.8806 41.4589 18.0137C41.8173 17.1469 42.0012 16.2178 42 15.2797C42.0012 14.343 41.8173 13.4154 41.4589 12.55C41.1005 11.6846 40.5744 10.8985 39.9113 10.237C39.2502 9.57382 38.4644 9.04792 37.5991 8.68946C36.734 8.33102 35.8065 8.14713 34.8699 8.14833H24.3914L19.3682 13.1728ZM25.3783 14.3007L36.3372 25.2713C36.6318 25.5653 36.8326 25.9402 36.9142 26.3485C36.9957 26.7567 36.9545 27.18 36.7954 27.5647C36.6364 27.9493 36.3668 28.2783 36.0208 28.5098C35.6749 28.7413 35.268 28.8649 34.8516 28.865V33.8987C35.7881 33.8995 36.7155 33.7154 37.5806 33.3569C38.4457 32.9985 39.2316 32.4729 39.8931 31.8101C40.5578 31.1478 41.0846 30.3603 41.443 29.4932C41.8015 28.626 41.9846 27.6965 41.9817 26.7581C41.9813 24.8641 41.2304 23.0475 39.8931 21.7062L32.4902 14.3007H25.3783ZM28.8311 19.3527V34.8582C28.8311 35.3947 28.6235 35.9416 28.2097 36.3541C27.8148 36.7468 27.2805 36.9671 26.7236 36.9671C26.1666 36.9671 25.6323 36.7468 25.2374 36.3541L21.6736 39.9114C23.0138 41.2495 24.8304 42.0008 26.7243 42C27.6623 42.0013 28.5914 41.8174 29.4582 41.4589C30.325 41.1005 31.1127 40.5746 31.7761 39.9114C32.4393 39.248 32.9652 38.4604 33.3236 37.5934C33.6821 36.7266 33.8659 35.7975 33.8647 34.8596L33.8542 24.3875L28.8311 19.354V19.3527ZM27.7019 25.3653L16.7431 36.3359C16.3442 36.7278 15.8075 36.9477 15.2484 36.9482C14.9717 36.9484 14.6975 36.8942 14.4417 36.7885C14.1859 36.6828 13.9535 36.5275 13.7579 36.3318C13.5622 36.1361 13.4069 35.9037 13.3012 35.648C13.1955 35.3921 13.1411 35.118 13.1415 34.8412H8.10655C8.10559 35.7801 8.29046 36.7098 8.6505 37.5769C9.01054 38.444 9.53864 39.2312 10.2043 39.8931C11.5429 41.2314 13.3582 41.9832 15.251 41.9832C17.1438 41.9832 18.9591 41.2314 20.2977 39.8931L27.7006 32.4784L27.7019 25.3653ZM22.65 28.8181H7.14969C6.59101 28.8177 6.0553 28.5956 5.66026 28.2006C5.26521 27.8055 5.04311 27.2698 5.04277 26.7111C5.04277 26.1759 5.25033 25.6381 5.66415 25.2243L2.10692 21.6697C1.4408 22.3295 0.912349 23.115 0.552236 23.9807C0.192123 24.8463 0.00752126 25.775 0.00914352 26.7124C0.00746621 27.6515 0.192008 28.5813 0.552089 29.4485C0.912169 30.3156 1.44064 31.1028 2.10692 31.7644C2.76822 32.4275 3.55405 32.9533 4.41923 33.3118C5.28441 33.6702 6.2119 33.8542 7.14839 33.853H17.6281L22.6513 28.8194L22.65 28.8181ZM16.6112 27.6236L5.65371 16.6621C5.45746 16.4667 5.30175 16.2344 5.19551 15.9785C5.08925 15.7227 5.03456 15.4485 5.03456 15.1715C5.03456 14.8943 5.08925 14.6201 5.19551 14.3643C5.30175 14.1084 5.45746 13.8761 5.65371 13.6807C5.84713 13.4829 6.07829 13.3261 6.33346 13.2193C6.58864 13.1126 6.86265 13.0581 7.13925 13.0593V8.03475C6.20282 8.03405 5.27547 8.21818 4.41034 8.57659C3.54522 8.93501 2.75935 9.46066 2.09779 10.1234C1.43201 10.7835 0.903791 11.569 0.543704 12.4346C0.183615 13.3002 -0.00118343 14.2286 5.70252e-06 15.1662C5.70252e-06 17.1425 0.798912 18.9206 2.09779 20.218L9.49942 27.6236H16.6112ZM13.1885 22.637V7.13142C13.1915 6.57347 13.4145 6.03921 13.8089 5.64454C14.2034 5.24988 14.7375 5.02662 15.2954 5.0232C15.8306 5.0232 16.3672 5.23206 16.781 5.64457L20.3461 2.08865C19.0055 0.750235 17.1884 -0.00104095 15.2941 1.08254e-06C13.4002 -0.00069483 11.5837 0.750554 10.2435 2.08865C9.57957 2.75149 9.05324 3.53907 8.69479 4.40606C8.33634 5.27307 8.15285 6.20238 8.15486 7.14056V17.6125L13.1885 22.637ZM14.3163 16.6256L25.2752 5.66415C25.4717 5.46817 25.7051 5.31315 25.9618 5.20805C26.2186 5.10296 26.4938 5.04988 26.7712 5.05191C27.3534 5.05191 27.8716 5.28689 28.2567 5.66415C28.4548 5.85957 28.6116 6.09255 28.7184 6.34945C28.825 6.60634 28.8794 6.88197 28.8781 7.16014H33.9105C33.9105 5.18375 33.1011 3.39666 31.8127 2.10822C31.151 1.44554 30.3652 0.919929 29.5001 0.561519C28.635 0.203109 27.7076 0.0189451 26.7712 0.0195821C25.8331 0.0178553 24.9038 0.201482 24.0368 0.559915C23.17 0.918348 22.3823 1.44453 21.7193 2.10822L14.3176 9.51247V16.6256H14.3163ZM22.2662 24.0299L24.0338 22.2519V19.7377L22.2649 17.9689H19.7533L17.9754 19.7377V22.2506L19.7533 24.0286H22.2649L22.2662 24.0299ZM18.2391 27.6889L14.3163 23.7754V18.2247L18.2391 14.3007H23.7793L27.7019 18.2247V23.7754L23.7793 27.6889H18.2391Z" fill="#2F88F0"/>
</svg>
